<svg width="38" height="38" viewBox="0 0 38 38" fill="none" xmlns="http://www.w3.org/2000/svg">
<path d="M9.18274 23.3871C9.30012 23.8408 9.5552 24.2832 10.0857 24.2132C10.1353 24.4096 9.93894 24.3735 9.8193 24.5089C9.54165 24.8227 9.52359 24.9852 9.55971 25.4141C9.31818 25.4412 9.34075 25.1523 9.2482 25.0123C9.0315 24.6805 8.81029 24.7347 8.50781 24.5518C9.07891 24.2742 8.97507 24.0011 9.0315 23.4999C9.04279 23.3938 9.07439 23.2855 9.18049 23.3893L9.18274 23.3871Z" fill="url(#paint0_linear_1203_862)" style="mix-blend-mode:lighten"/>
<path d="M26.9704 24.1365L27.1059 24.8634L27.5709 25.3352C27.2504 25.299 27.0043 25.4119 26.8305 25.685C26.7221 25.8543 26.7515 26.2065 26.519 26.1613C26.5348 25.8453 26.51 25.4096 26.2459 25.1929C26.133 25.1004 25.9343 25.1794 25.993 24.9627C26.3226 24.9492 26.5145 24.8408 26.6838 24.5654C26.7853 24.3984 26.7628 24.0936 26.9682 24.1365H26.9704Z" fill="url(#paint1_linear_1203_862)" style="mix-blend-mode:lighten"/>
<path d="M22.9924 9.87499C23.0466 10.1301 22.7599 10.3648 22.7689 10.5793C22.7802 10.8659 23.0579 11.1684 23.0669 11.2045C23.1075 11.3851 23.0466 11.6334 23.0692 11.8276L19.541 11.6763C19.5749 11.5206 19.7464 11.5702 19.8458 11.4732C20.0196 11.3061 20.2498 10.8479 20.4755 10.6222C20.8502 10.2429 21.4845 9.68764 22.0398 9.8163C22.4552 9.91111 22.3829 10.428 22.9924 9.87499Z" fill="url(#paint2_linear_1203_862)" style="mix-blend-mode:lighten"/>
<path d="M17.3655 21.5836V21.2833C17.9366 21.3736 18.3271 21.1344 18.528 20.6062L20.1443 13.4347C20.2391 12.6627 19.0134 12.3919 18.6048 12.9517C18.2662 13.4167 18.5845 14.1864 19.2097 13.8568C19.3452 13.5476 19.0608 13.3625 18.7921 13.3241C19.7718 12.4573 20.2323 14.1232 19.124 14.2948C17.8779 14.4889 17.5868 12.9133 18.6499 12.3196C19.5235 11.8321 22.0923 12.1097 23.1871 12.1955C23.3203 12.2068 23.4331 12.1797 23.5212 12.3129C23.555 12.5002 23.3745 12.4144 23.2571 12.4212C22.783 12.4573 22.2729 12.4957 22.3361 13.1142C22.9975 14.9968 23.0675 17.8071 23.8372 19.5746C24.1216 20.2247 24.4376 20.2314 25.1013 20.263L25.1713 20.6806L21.1172 20.4549C21.1104 20.1208 21.4828 20.2676 21.6747 20.2247C22.0223 20.1479 22.1668 20.0193 22.239 19.6626L21.6409 16.9268C21.1036 16.9403 20.984 17.2812 20.9275 17.7529C20.6702 17.7462 20.7853 17.3082 20.5935 17.1119C20.4874 17.0013 20.291 16.9448 20.1398 16.9268L19.3068 20.6423C19.3181 21.1411 19.6522 21.3646 20.1398 21.2788V21.579H17.3633L17.3655 21.5836ZM21.5664 16.78L20.9298 13.7778L20.2165 16.78C20.6296 16.6672 20.7673 16.3715 20.7424 15.9539H20.9682C20.9117 16.3512 21.1668 16.7214 21.5686 16.78H21.5664Z" fill="url(#paint3_linear_1203_862)" style="mix-blend-mode:lighten"/>
<path d="M27.5344 12.7282C29.1439 12.8817 30.2003 13.7575 29.9678 15.4618C29.7782 16.8432 28.3583 17.1276 27.5028 17.8003C26.5638 18.5385 27.5773 19.2563 27.8414 18.8883C27.9114 18.7642 27.8843 18.6513 27.803 18.5407C27.7105 18.4143 27.4148 18.4166 27.4599 18.2834C28.706 17.6197 28.8391 19.3466 27.5367 19.3398C27.1123 19.3398 27.0897 19.175 26.7489 19.0328V21.3962C26.7489 22.0147 27.6699 22.2698 28.1755 22.184V22.4075L24.1959 22.184V21.807C24.9927 21.8476 25.4645 21.8251 25.5458 20.9425C25.609 20.2811 25.4758 19.6197 25.469 18.9944C25.4487 17.1976 25.5029 15.3986 25.4555 13.604C25.2388 13.0532 24.6722 12.8952 24.1191 12.9494V12.7237C25.2184 12.8004 26.4509 12.6198 27.5344 12.7237V12.7282ZM26.7466 13.1029V17.8319L27.5728 17.1954C28.1936 16.6175 28.7014 16.078 28.7014 15.1683C28.7014 14.0916 27.9227 12.9584 26.7466 13.1051V13.1029Z" fill="url(#paint4_linear_1203_862)" style="mix-blend-mode:lighten"/>
<path d="M17.14 20.4595L11.8105 20.1592V19.9358C13.7563 20.1434 13.201 17.7846 13.2349 16.5182C13.2688 15.2519 13.3004 14.0217 13.3094 12.7643C13.3094 12.507 13.4065 12.3513 13.3681 12.0375C13.2778 11.2768 12.8354 10.8005 12.0363 10.9292V10.7057L17.14 10.7802L17.0633 12.507H16.8398C17.0858 11.1075 15.9617 11.2542 14.9617 11.2294L14.8872 14.9065H16.35C16.3861 14.9065 16.7134 14.7011 16.7563 14.6356C16.9053 14.4031 16.8172 14.0465 16.8398 13.7801H17.0633L16.9888 16.5566C16.7585 16.595 16.8714 16.4934 16.8375 16.3738C16.526 15.2316 16.0723 15.297 14.9572 15.3896L14.8985 15.4799L14.8127 19.7845C15.7879 19.8771 17.1242 20.2044 16.9143 18.7349H17.14V20.4617V20.4595Z" fill="url(#paint5_linear_1203_862)" style="mix-blend-mode:lighten"/>
<path d="M15.3404 22.4098L7.90936 20.9832L8.10574 20.6175C8.59557 20.5995 9.06283 20.8252 9.34951 20.2857C9.57524 19.8591 9.4082 19.7462 9.40594 19.3738C9.39691 17.7914 9.35402 16.0668 9.26147 14.489C9.24116 14.1413 9.21181 13.6402 9.16441 13.3107C9.06283 12.6154 8.51205 12.1053 7.79649 12.3536L7.75586 12.164C7.77843 12.094 8.01545 12.0579 8.09445 12.0511C8.97254 11.9743 9.97704 12.0804 10.8754 12.0533C11.1892 12.0443 11.6068 11.8254 11.8844 12.0895L10.986 12.3897C10.5436 12.7215 10.819 14.042 10.8371 14.5612C10.9093 16.7575 10.9702 18.9426 11.0921 21.1367C11.1689 21.2473 13.4488 21.6807 13.7422 21.7146C14.3946 21.7891 15.1485 21.6107 15.1124 20.832H15.3381V22.4098H15.3404Z" fill="url(#paint6_linear_1203_862)" style="mix-blend-mode:lighten"/>
<path d="M25.0195 23.3871L24.8683 24.3623C24.7216 24.3487 24.8006 24.1162 24.699 24.0056C24.5681 23.8634 23.4823 23.579 23.3288 23.7618C23.295 23.8025 23.0376 24.4864 23.067 24.5113C24.2046 24.3623 25.0737 24.7934 24.9428 26.0507C24.7058 28.3577 21.8977 27.8746 22.3898 25.7121L23.2159 25.7889C23.2724 26.0214 23.0624 25.904 22.9202 25.9785C22.4101 26.2449 22.6042 27.2561 23.2611 27.2855C24.3581 27.3329 24.7306 24.7099 23.4778 24.658C23.2001 24.6467 22.988 24.8792 22.6923 24.8137L23.2927 23.0869L25.0195 23.3871Z" fill="url(#paint7_linear_1203_862)" style="mix-blend-mode:lighten"/>
<path d="M20.4147 22.5859C21.4237 23.5475 19.8662 25.376 19.8414 26.4617C19.8798 26.5023 20.5908 26.2992 20.6946 26.227C20.8865 26.096 20.97 25.7258 21.0061 25.71C21.1732 25.6423 21.1122 25.8861 21.1168 25.9719C21.128 26.1299 21.1235 26.2969 21.1077 26.4527L19.0152 26.7597C18.8662 25.7123 20.4825 23.6424 19.9836 22.753C19.7488 22.3354 19.1597 22.4008 18.9994 22.8771C18.8707 23.2586 19.022 23.3015 19.3019 23.5114C19.5953 23.7326 18.7127 23.5159 18.6744 23.4618C18.4012 22.4798 19.7646 21.9629 20.417 22.5814L20.4147 22.5859Z" fill="url(#paint8_linear_1203_862)" style="mix-blend-mode:lighten"/>
<path d="M11.4342 26.5383C11.8383 26.5451 12.3981 26.6218 12.6396 26.2065C12.7209 26.0643 12.6577 25.8747 12.7841 25.8656V26.7663L10.6081 26.8408C10.3124 26.5496 12.1701 23.9492 12.1882 23.272C12.222 22.0915 10.5042 22.6987 11.283 23.6129L10.6893 23.4165C10.6826 22.4007 12.1972 22.1163 12.6509 22.9605C13.2784 24.1275 11.739 25.4639 11.4342 26.5406V26.5383Z" fill="url(#paint9_linear_1203_862)" style="mix-blend-mode:lighten"/>
<path d="M15.9214 23.4029C16.7092 23.2923 17.4022 24.0214 17.6482 24.7167C18.0049 25.7257 17.8649 27.3577 16.8627 27.9491C14.3142 29.457 13.3526 23.7618 15.9214 23.4029ZM16.2961 23.7031C16.0952 23.5632 15.8875 23.6557 15.7092 23.7957C14.9598 24.3803 15.1539 26.5902 15.4135 27.439C15.5399 27.4638 15.567 27.4051 15.6279 27.3171C15.9282 26.8791 16.4744 24.7911 16.4564 24.2584C16.4541 24.1659 16.348 23.7618 16.2961 23.7054V23.7031ZM16.8379 24.3623C16.5918 24.4796 16.7182 24.825 16.6708 25.0575C16.4902 25.9514 16.1765 27.001 15.716 27.7775C15.8559 27.9401 16.0501 27.9942 16.2577 27.9514C17.2035 27.7572 17.0929 25.0665 16.8379 24.3623Z" fill="url(#paint10_linear_1203_862)" style="mix-blend-mode:lighten"/>
<circle cx="19" cy="19" r="18.5" stroke="url(#paint11_linear_1203_862)"/>
<defs>
<linearGradient id="paint0_linear_1203_862" x1="9.30068" y1="23.3473" x2="9.30068" y2="25.4159" gradientUnits="userSpaceOnUse">
<stop stop-color="#A67C00"/>
<stop offset="0.5" stop-color="#B38C18"/>
<stop offset="0.75" stop-color="#FFBF00"/>
<stop offset="0.875" stop-color="#FFCF40"/>
<stop offset="1" stop-color="#FFDC73"/>
</linearGradient>
<linearGradient id="paint1_linear_1203_862" x1="26.7767" y1="24.1324" x2="26.7767" y2="26.1653" gradientUnits="userSpaceOnUse">
<stop stop-color="#A67C00"/>
<stop offset="0.5" stop-color="#B38C18"/>
<stop offset="0.75" stop-color="#FFBF00"/>
<stop offset="0.875" stop-color="#FFCF40"/>
<stop offset="1" stop-color="#FFDC73"/>
</linearGradient>
<linearGradient id="paint2_linear_1203_862" x1="21.3111" y1="9.79736" x2="21.3111" y2="11.8276" gradientUnits="userSpaceOnUse">
<stop stop-color="#A67C00"/>
<stop offset="0.5" stop-color="#B38C18"/>
<stop offset="0.75" stop-color="#FFBF00"/>
<stop offset="0.875" stop-color="#FFCF40"/>
<stop offset="1" stop-color="#FFDC73"/>
</linearGradient>
<linearGradient id="paint3_linear_1203_862" x1="21.2673" y1="12.0389" x2="21.2673" y2="21.5836" gradientUnits="userSpaceOnUse">
<stop stop-color="#A67C00"/>
<stop offset="0.5" stop-color="#B38C18"/>
<stop offset="0.75" stop-color="#FFBF00"/>
<stop offset="0.875" stop-color="#FFCF40"/>
<stop offset="1" stop-color="#FFDC73"/>
</linearGradient>
<linearGradient id="paint4_linear_1203_862" x1="27.0595" y1="12.6906" x2="27.0595" y2="22.4075" gradientUnits="userSpaceOnUse">
<stop stop-color="#A67C00"/>
<stop offset="0.5" stop-color="#B38C18"/>
<stop offset="0.75" stop-color="#FFBF00"/>
<stop offset="0.875" stop-color="#FFCF40"/>
<stop offset="1" stop-color="#FFDC73"/>
</linearGradient>
<linearGradient id="paint5_linear_1203_862" x1="14.4753" y1="10.7057" x2="14.4753" y2="20.4617" gradientUnits="userSpaceOnUse">
<stop stop-color="#A67C00"/>
<stop offset="0.5" stop-color="#B38C18"/>
<stop offset="0.75" stop-color="#FFBF00"/>
<stop offset="0.875" stop-color="#FFCF40"/>
<stop offset="1" stop-color="#FFDC73"/>
</linearGradient>
<linearGradient id="paint6_linear_1203_862" x1="11.5481" y1="11.9596" x2="11.5481" y2="22.4098" gradientUnits="userSpaceOnUse">
<stop stop-color="#A67C00"/>
<stop offset="0.5" stop-color="#B38C18"/>
<stop offset="0.75" stop-color="#FFBF00"/>
<stop offset="0.875" stop-color="#FFCF40"/>
<stop offset="1" stop-color="#FFDC73"/>
</linearGradient>
<linearGradient id="paint7_linear_1203_862" x1="23.6758" y1="23.0869" x2="23.6758" y2="27.5715" gradientUnits="userSpaceOnUse">
<stop stop-color="#A67C00"/>
<stop offset="0.5" stop-color="#B38C18"/>
<stop offset="0.75" stop-color="#FFBF00"/>
<stop offset="0.875" stop-color="#FFCF40"/>
<stop offset="1" stop-color="#FFDC73"/>
</linearGradient>
<linearGradient id="paint8_linear_1203_862" x1="19.8813" y1="22.3132" x2="19.8813" y2="26.7597" gradientUnits="userSpaceOnUse">
<stop stop-color="#A67C00"/>
<stop offset="0.5" stop-color="#B38C18"/>
<stop offset="0.75" stop-color="#FFBF00"/>
<stop offset="0.875" stop-color="#FFCF40"/>
<stop offset="1" stop-color="#FFDC73"/>
</linearGradient>
<linearGradient id="paint9_linear_1203_862" x1="11.688" y1="22.4637" x2="11.688" y2="26.8408" gradientUnits="userSpaceOnUse">
<stop stop-color="#A67C00"/>
<stop offset="0.5" stop-color="#B38C18"/>
<stop offset="0.75" stop-color="#FFBF00"/>
<stop offset="0.875" stop-color="#FFCF40"/>
<stop offset="1" stop-color="#FFDC73"/>
</linearGradient>
<linearGradient id="paint10_linear_1203_862" x1="16.1171" y1="23.3917" x2="16.1171" y2="28.2026" gradientUnits="userSpaceOnUse">
<stop stop-color="#A67C00"/>
<stop offset="0.5" stop-color="#B38C18"/>
<stop offset="0.75" stop-color="#FFBF00"/>
<stop offset="0.875" stop-color="#FFCF40"/>
<stop offset="1" stop-color="#FFDC73"/>
</linearGradient>
<linearGradient id="paint11_linear_1203_862" x1="19" y1="0" x2="19" y2="38" gradientUnits="userSpaceOnUse">
<stop stop-color="#A67C00"/>
<stop offset="0.5" stop-color="#B38C18"/>
<stop offset="0.75" stop-color="#FFBF00"/>
<stop offset="0.875" stop-color="#FFCF40"/>
<stop offset="1" stop-color="#FFDC73"/>
</linearGradient>
</defs>
</svg>
