<svg width="38" height="38" viewBox="0 0 38 38" fill="none" xmlns="http://www.w3.org/2000/svg">
<g clip-path="url(#clip0_1203_888)">
<path fill-rule="evenodd" clip-rule="evenodd" d="M11 11.1429C11 9.95939 11.9594 9 13.1429 9H23.1429C24.3263 9 25.2857 9.95939 25.2857 11.1429V13.9123C24.7105 14.3729 24.3299 15.0436 24.2366 15.7857H19.2143C17.4391 15.7857 16 17.2248 16 19C16 20.7752 17.4391 22.2143 19.2143 22.2143H24.2366C24.3299 22.9563 24.7105 23.6271 25.2857 24.0877V26.8571C25.2857 28.0406 24.3263 29 23.1429 29H13.1429C11.9594 29 11 28.0406 11 26.8571V11.1429ZM26.6614 15.153C26.261 15.3189 26 15.7095 26 16.1429V17.5715H19.2143C18.4253 17.5715 17.7857 18.2111 17.7857 19C17.7857 19.789 18.4253 20.4286 19.2143 20.4286H26V21.8572C26 22.2905 26.261 22.6812 26.6614 22.847C27.0617 23.0129 27.5226 22.9212 27.829 22.6148L30.6861 19.7576C31.1046 19.3392 31.1046 18.6608 30.6861 18.2424L27.829 15.3853C27.5226 15.0788 27.0617 14.9872 26.6614 15.153Z" fill="url(#paint0_linear_1203_888)" style="mix-blend-mode:lighten"/>
</g>
<circle cx="19" cy="19" r="18.5" stroke="url(#paint1_linear_1203_888)"/>
<defs>
<linearGradient id="paint0_linear_1203_888" x1="21" y1="9" x2="21" y2="29" gradientUnits="userSpaceOnUse">
<stop stop-color="#A67C00"/>
<stop offset="0.5" stop-color="#B38C18"/>
<stop offset="0.75" stop-color="#FFBF00"/>
<stop offset="0.875" stop-color="#FFCF40"/>
<stop offset="1" stop-color="#FFDC73"/>
</linearGradient>
<linearGradient id="paint1_linear_1203_888" x1="19" y1="0" x2="19" y2="38" gradientUnits="userSpaceOnUse">
<stop stop-color="#A67C00"/>
<stop offset="0.5" stop-color="#B38C18"/>
<stop offset="0.75" stop-color="#FFBF00"/>
<stop offset="0.875" stop-color="#FFCF40"/>
<stop offset="1" stop-color="#FFDC73"/>
</linearGradient>
<clipPath id="clip0_1203_888">
<rect width="20" height="20" fill="white" transform="translate(11 9)"/>
</clipPath>
</defs>
</svg>
