<svg width="25" height="25" viewBox="0 0 25 25" fill="none" xmlns="http://www.w3.org/2000/svg">
<path d="M2.84291 2.84292C6.55284 -0.867009 12.4768 -0.957612 16.0744 2.6398L16.4015 2.98452C19.2839 6.18552 19.4618 10.9856 16.9835 14.5392L23.6066 21.1632C24.2811 21.8378 24.2811 22.9311 23.6066 23.6056C22.932 24.2801 21.8387 24.2801 21.1642 23.6056L14.5412 16.9835C10.9874 19.4627 6.18588 19.2843 2.98451 16.4015L2.63979 16.0744C-0.957615 12.4768 -0.867 6.55285 2.84291 2.84292ZM13.9533 4.76089C11.5883 2.39611 7.56534 2.36463 4.96498 4.96499C2.36464 7.56535 2.39611 11.5883 4.76088 13.9533C7.1258 16.3182 11.1488 16.3496 13.7492 13.7492C16.3496 11.1488 16.3182 7.12582 13.9533 4.76089Z" fill="url(#paint0_linear_1096_1022)" style="mix-blend-mode:lighten"/>
<defs>
<linearGradient id="paint0_linear_1096_1022" x1="12.0562" y1="0" x2="12.0562" y2="24.1115" gradientUnits="userSpaceOnUse">
<stop stop-color="#A67C00"/>
<stop offset="0.5" stop-color="#B38C18"/>
<stop offset="0.75" stop-color="#FFBF00"/>
<stop offset="0.875" stop-color="#FFCF40"/>
<stop offset="1" stop-color="#FFDC73"/>
</linearGradient>
</defs>
</svg>
